<?xml version="1.0" encoding="UTF-8" standalone="no" ?>
<!DOCTYPE svg PUBLIC "-//W3C//DTD SVG 1.1//EN" "http://www.w3.org/Graphics/SVG/1.1/DTD/svg11.dtd">
<svg xmlns="http://www.w3.org/2000/svg" xmlns:xlink="http://www.w3.org/1999/xlink" version="1.1" width="1080" height="1080" viewBox="0 0 1080 1080" xml:space="preserve">
<desc>Created with Fabric.js 5.2.4</desc>
<defs>
</defs>
<g transform="matrix(1 0 0 1 540 540)" id="1f51dfc5-66ca-4906-a50d-2d60f8142c4d"  >
<rect style="stroke: none; stroke-width: 1; stroke-dasharray: none; stroke-linecap: butt; stroke-dashoffset: 0; stroke-linejoin: miter; stroke-miterlimit: 4; fill: rgb(255,255,255); fill-rule: nonzero; opacity: 1; visibility: hidden;" vector-effect="non-scaling-stroke"  x="-540" y="-540" rx="0" ry="0" width="1080" height="1080" />
</g>
<g transform="matrix(1 0 0 1 540 540)" id="9dae99ad-faf3-498a-90f5-1b8c6a014747"  >
</g>
<g transform="matrix(1 0 0 1 540 540)" id="11438cbc-4d61-4e41-8536-b6d71ac98cd5"  >
<path style="stroke: rgb(0,0,0); stroke-width: 0; stroke-dasharray: none; stroke-linecap: butt; stroke-dashoffset: 0; stroke-linejoin: miter; stroke-miterlimit: 4; fill: rgb(255,69,0); fill-rule: nonzero; opacity: 1;" vector-effect="non-scaling-stroke"  transform=" translate(-557.04, -961.18)" d="M 333 1702 C 253 1690 242 1686 213 1655 C 174 1614 178 1697 180 950 C 181 310 178 332 270 270 C 326 232 331 231 459 219 C 573 209 613 209 759 225 L 927 243 L 933 454 C 936 570 936 751 933 857 L 927 1049 L 902 1055 C 883 1060 549 1042 544 1036 C 541 1033 520 752 520 717 L 520 680 L 670 680 L 820 680 L 820 613 L 820 547 L 669 554 C 571 558 508 565 491 575 L 463 589 L 457 906 C 453 1081 450 1285 450 1360 L 450 1496 L 493 1536 C 532 1574 538 1577 582 1572 C 639 1567 637 1575 644 1352 C 646 1267 651 1196 653 1193 C 656 1191 720 1194 796 1201 L 933 1214 L 926 1388 C 919 1558 919 1563 891 1604 C 832 1688 837 1686 618 1702 C 455 1713 406 1713 333 1702 z" stroke-linecap="round" />
</g>
<g transform="matrix(NaN NaN NaN NaN 0 0)"  >
<g style=""   >
</g>
</g>
</svg>