<svg width="24" height="24" viewBox="0 0 24 24" fill="none" xmlns="http://www.w3.org/2000/svg">
<g clip-path="url(#clip0_55_1615)">
<path d="M12.6299 0.0703147C12.8727 0.217053 13.0572 0.438703 13.1924 0.685549C13.224 0.819242 13.2251 0.941247 13.2187 1.07813C13.2651 1.06266 13.3116 1.04719 13.3594 1.03125C13.6908 0.994755 13.9689 1.03359 14.25 1.21875C14.5327 1.46193 14.6887 1.75119 14.731 2.12385C14.7348 2.23508 14.7346 2.34545 14.7325 2.45673C14.7323 2.49671 14.7321 2.53669 14.7319 2.57788C14.7311 2.70396 14.7293 2.82999 14.7275 2.95606C14.7268 3.04221 14.7262 3.12836 14.7256 3.21451C14.7241 3.42427 14.7216 3.63401 14.7187 3.84375C14.7498 3.83979 14.7808 3.83583 14.8127 3.83175C15.2042 3.78626 15.5171 3.81313 15.8379 4.06348C16.0792 4.29229 16.2061 4.58694 16.2234 4.91816C16.2257 5.02715 16.2265 5.13604 16.2266 5.24506C16.2268 5.28561 16.2269 5.32615 16.2271 5.36793C16.2273 5.45386 16.2274 5.53979 16.2274 5.62572C16.2275 5.75461 16.2284 5.88348 16.2293 6.01236C16.2343 7.57176 15.8626 8.891 14.7656 10.0313C14.727 10.0717 14.6884 10.1122 14.6486 10.1539C14.4357 10.3727 14.4357 10.3727 14.3437 10.4531C14.3128 10.4531 14.2819 10.4531 14.25 10.4531C14.1158 10.7952 14.0849 11.0981 14.0771 11.4639C14.0755 11.5156 14.0739 11.5674 14.0723 11.6207C14.0685 11.7471 14.0652 11.8735 14.0625 12C14.1396 12.0083 14.1396 12.0083 14.2183 12.0168C14.43 12.0537 14.4929 12.1152 14.625 12.2813C14.7074 12.4519 14.73 12.5856 14.7279 12.7744C14.7274 12.8462 14.7274 12.8462 14.727 12.9195C14.7262 12.9689 14.7254 13.0184 14.7246 13.0693C14.7242 13.1197 14.7238 13.1701 14.7233 13.222C14.7222 13.3459 14.7207 13.4698 14.7187 13.5938C14.7458 13.6034 14.7729 13.6131 14.8008 13.623C14.9503 13.7144 15.0108 13.8153 15.0937 13.9688C15.118 14.1225 15.118 14.1225 15.1186 14.287C15.119 14.3764 15.119 14.3764 15.1194 14.4675C15.1187 14.5292 15.1179 14.5908 15.1172 14.6543C15.1178 14.7169 15.1186 14.7795 15.1194 14.8422C15.1191 14.9016 15.1189 14.9611 15.1186 15.0223C15.1184 15.0765 15.1182 15.1307 15.118 15.1865C15.0887 15.3574 15.0443 15.4133 14.9062 15.5156C14.7303 15.5376 14.6232 15.5405 14.4668 15.4541C14.1707 15.1466 14.3437 14.5147 14.3437 14.2031C12.5184 14.2031 10.6931 14.2031 8.81249 14.2031C8.81249 17.2041 8.81249 20.205 8.81249 23.2969C10.6378 23.2969 12.4631 23.2969 14.3437 23.2969C14.3421 22.8225 14.3405 22.3481 14.3388 21.8593C14.3381 21.5592 14.3374 21.259 14.3369 20.9589C14.336 20.4823 14.3351 20.0056 14.3331 19.529C14.3317 19.1819 14.3308 18.8348 14.3305 18.4877C14.3303 18.3039 14.3299 18.1201 14.3289 17.9363C14.3279 17.7633 14.3276 17.5903 14.3278 17.4173C14.3278 17.3235 14.327 17.2298 14.3262 17.1361C14.3264 17.0802 14.3266 17.0242 14.3268 16.9666C14.3267 16.9181 14.3266 16.8696 14.3264 16.8196C14.3466 16.6659 14.3933 16.5776 14.4844 16.4531C14.6181 16.3863 14.711 16.3917 14.8594 16.4063C14.9841 16.4825 14.9841 16.4825 15.0937 16.5938C15.1231 16.729 15.1231 16.729 15.1232 16.8891C15.1238 16.9498 15.1244 17.0105 15.125 17.0731C15.1245 17.1403 15.1239 17.2075 15.1233 17.2747C15.1236 17.3456 15.1239 17.4164 15.1243 17.4873C15.1252 17.6796 15.1246 17.8719 15.1237 18.0643C15.1229 18.2655 15.1233 18.4667 15.1236 18.668C15.1238 19.0059 15.123 19.3438 15.1217 19.6818C15.1202 20.0726 15.1202 20.4633 15.121 20.8541C15.1218 21.2299 15.1215 21.6057 15.1207 21.9816C15.1203 22.1416 15.1204 22.3015 15.1207 22.4615C15.1211 22.6499 15.1205 22.8383 15.1192 23.0266C15.1189 23.0958 15.1189 23.165 15.1192 23.2341C15.1197 23.3285 15.1188 23.4228 15.1179 23.5172C15.1177 23.57 15.1176 23.6228 15.1175 23.6772C15.0877 23.8467 15.0465 23.9016 14.9062 24C14.7796 24.0235 14.7796 24.0235 14.6319 24.0235C14.5759 24.024 14.5198 24.0244 14.4621 24.0249C14.4007 24.0244 14.3394 24.024 14.2762 24.0235C14.2108 24.0237 14.1454 24.024 14.08 24.0243C13.9026 24.0249 13.7252 24.0244 13.5478 24.0236C13.3622 24.023 13.1765 24.0233 12.9909 24.0235C12.6793 24.0236 12.3676 24.023 12.056 24.0219C11.6955 24.0206 11.335 24.0205 10.9745 24.0211C10.6279 24.0216 10.2813 24.0213 9.93462 24.0206C9.78702 24.0204 9.63943 24.0204 9.49184 24.0206C9.31812 24.0208 9.14442 24.0204 8.9707 24.0193C8.87641 24.019 8.78211 24.0193 8.68782 24.0196C8.63189 24.0191 8.57596 24.0187 8.51834 24.0182C8.46963 24.0181 8.42091 24.0179 8.37072 24.0178C8.24999 24 8.24999 24 8.16584 23.9403C8.03012 23.7459 8.05566 23.5111 8.05591 23.2832C8.05577 23.2436 8.05563 23.2041 8.05549 23.1633C8.05508 23.0306 8.05501 22.8978 8.05494 22.7651C8.05472 22.67 8.05449 22.5749 8.05423 22.4798C8.05362 22.2213 8.05332 21.9628 8.05311 21.7043C8.05297 21.5429 8.05278 21.3814 8.05257 21.2199C8.05193 20.7148 8.05147 20.2096 8.05129 19.7045C8.05108 19.1212 8.05026 18.538 8.0489 17.9547C8.04789 17.504 8.04742 17.0532 8.04735 16.6025C8.04731 16.3332 8.04703 16.0639 8.04619 15.7947C8.04542 15.5414 8.04532 15.2881 8.04573 15.0349C8.04577 14.9419 8.04556 14.849 8.0451 14.7561C8.0445 14.6292 8.04478 14.5023 8.04527 14.3753C8.0447 14.3203 8.0447 14.3203 8.04412 14.2642C8.04629 14.0229 8.09111 13.8554 8.20312 13.6406C8.35281 13.5 8.35281 13.5 8.48437 13.5C8.48326 13.4554 8.48326 13.4554 8.48214 13.4098C8.4792 13.2739 8.47738 13.1379 8.47558 13.002C8.4744 12.9551 8.47322 12.9083 8.47201 12.86C8.46943 12.6008 8.47342 12.409 8.62499 12.1875C8.80563 12.0383 8.9098 11.9898 9.14062 12C9.13854 11.7924 9.13525 11.5848 9.13089 11.3772C9.12957 11.3067 9.12858 11.2361 9.12791 11.1656C9.1269 11.0638 9.12471 10.962 9.12231 10.8602C9.12083 10.7685 9.12083 10.7685 9.11933 10.6749C9.08813 10.4616 9.02301 10.3517 8.90624 10.1719C8.86573 10.1092 8.86573 10.1092 8.82439 10.0452C8.79823 10.0058 8.77207 9.96637 8.74511 9.92578C8.04151 8.81863 7.94534 7.52046 7.95007 6.24042C7.94997 6.14722 7.94983 6.05403 7.94966 5.96083C7.94945 5.76802 7.94974 5.57523 7.95041 5.38242C7.95122 5.13609 7.95074 4.88978 7.94991 4.64345C7.9494 4.45207 7.94956 4.26069 7.94992 4.06931C7.95002 3.97843 7.9499 3.88755 7.94958 3.79667C7.94922 3.67012 7.94976 3.54359 7.95055 3.41704C7.95026 3.38019 7.94998 3.34335 7.94968 3.30539C7.9532 2.99628 8.01334 2.7362 8.2207 2.4961C8.2613 2.46129 8.30191 2.42649 8.34374 2.39063C8.38048 2.35679 8.41722 2.32295 8.45507 2.28809C8.71514 2.10852 8.97621 2.09438 9.28124 2.10938C9.34405 2.12374 9.40666 2.13905 9.46874 2.15625C9.46657 2.10362 9.46439 2.05099 9.46215 1.99677C9.44101 1.26863 9.44101 1.26863 9.65624 0.937502C9.68138 0.894963 9.70652 0.852424 9.73241 0.808596C9.98743 0.567002 10.2569 0.454208 10.6084 0.451174C10.7804 0.457145 10.9414 0.478303 11.1094 0.515627C11.1253 0.494116 11.1413 0.472605 11.1577 0.450442C11.5181 -0.00582036 12.0714 -0.173562 12.6299 0.0703147ZM11.7187 0.984377C11.6915 1.13453 11.6937 1.28249 11.6954 1.43475C11.6951 1.47982 11.6949 1.52489 11.6946 1.57133C11.6942 1.66898 11.6942 1.76663 11.6945 1.86428C11.6951 2.01873 11.6946 2.17313 11.6938 2.32757C11.6925 2.59955 11.6923 2.87151 11.6923 3.14349C11.6924 3.57917 11.6918 4.01483 11.6897 4.4505C11.6893 4.60286 11.6897 4.75519 11.6901 4.90755C11.6898 5.00062 11.6895 5.09369 11.6892 5.18676C11.6895 5.22928 11.6899 5.2718 11.6903 5.31561C11.6899 5.35451 11.6896 5.39341 11.6893 5.43349C11.6893 5.46728 11.6894 5.50107 11.6894 5.53588C11.6663 5.65317 11.626 5.69439 11.5312 5.76563C11.3552 5.78804 11.2493 5.79721 11.1003 5.69536C10.9809 5.53001 10.9906 5.37817 10.9937 5.1819C10.9936 5.14201 10.9935 5.10213 10.9934 5.06104C10.9933 4.97454 10.9936 4.88803 10.9943 4.80153C10.9953 4.66459 10.9951 4.5277 10.9946 4.39075C10.9936 4.05066 10.9944 3.71058 10.9956 3.37048C10.9966 3.08308 10.9967 2.79571 10.9955 2.50831C10.9953 2.37345 10.9965 2.23865 10.9976 2.10379C10.9974 2.021 10.9971 1.93821 10.9967 1.85542C10.9974 1.81799 10.9981 1.78055 10.9988 1.74198C10.9964 1.55221 10.9771 1.4638 10.8588 1.31244C10.7405 1.20881 10.7405 1.20881 10.5908 1.19238C10.4242 1.22429 10.3698 1.27504 10.2656 1.40625C10.1902 1.55699 10.2116 1.72145 10.2113 1.88708C10.2111 1.9271 10.2109 1.96712 10.2106 2.00835C10.2101 2.09542 10.2097 2.18248 10.2094 2.26955C10.2089 2.40723 10.2079 2.54491 10.2069 2.6826C10.204 3.07411 10.2015 3.46563 10.1999 3.85715C10.1989 4.09646 10.1973 4.33576 10.1952 4.57506C10.1945 4.66639 10.1941 4.75773 10.194 4.84907C10.1938 4.97668 10.1927 5.10426 10.1914 5.23186C10.1915 5.26978 10.1917 5.3077 10.1918 5.34677C10.188 5.6004 10.188 5.6004 10.1104 5.7186C9.97261 5.80046 9.85838 5.78469 9.70312 5.76563C9.58122 5.67118 9.52306 5.61541 9.49255 5.46252C9.49278 5.3978 9.49278 5.3978 9.493 5.33176C9.49268 5.28264 9.49237 5.23352 9.49204 5.18291C9.49257 5.13012 9.4931 5.07734 9.49364 5.02295C9.49331 4.96852 9.49298 4.91408 9.49264 4.858C9.49126 4.62501 9.49204 4.39203 9.49261 4.15904C9.49273 3.98899 9.49175 3.81897 9.49071 3.64893C9.49125 3.59614 9.49178 3.54335 9.49232 3.48897C9.492 3.43985 9.49168 3.39073 9.49136 3.34012C9.49158 3.27539 9.49158 3.27539 9.49181 3.20935C9.46146 3.05725 9.40053 3.0023 9.28124 2.90625C9.14514 2.85167 9.14514 2.85167 8.99999 2.85938C8.87122 2.94236 8.78758 3.00295 8.71874 3.14063C8.71141 3.24437 8.70699 3.34832 8.70391 3.45227C8.70293 3.48395 8.70195 3.51562 8.70095 3.54825C8.69782 3.65261 8.69507 3.75696 8.69237 3.86133C8.6914 3.89711 8.69042 3.93288 8.68941 3.96974C8.48145 7.09304 8.48145 7.09304 9.6394 9.8888C10.0487 10.5028 9.87119 11.3199 9.89062 12C11.0198 12 12.1491 12 13.3125 12C13.328 11.5978 13.3434 11.1956 13.3594 10.7813C13.5095 10.2306 13.6495 9.9924 14.0594 9.64472C14.8934 8.93685 15.3674 7.89771 15.4593 6.81609C15.4775 6.5082 15.4793 6.20016 15.48 5.8918C15.4805 5.77383 15.4819 5.6559 15.4834 5.53794C15.4837 5.46216 15.4839 5.38639 15.4841 5.31061C15.485 5.25831 15.485 5.25831 15.4859 5.20495C15.4849 4.98222 15.4491 4.82835 15.3281 4.64063C15.1709 4.55862 15.0906 4.53594 14.918 4.5791C14.7994 4.63789 14.7994 4.63789 14.7187 4.78125C14.7044 4.87599 14.7044 4.87599 14.706 4.9806C14.7056 5.02067 14.7051 5.06074 14.7046 5.10203C14.7045 5.14524 14.7044 5.18845 14.7043 5.23297C14.7031 5.3248 14.7019 5.41663 14.7007 5.50846C14.6994 5.65297 14.6982 5.79748 14.6974 5.94199C14.6963 6.08164 14.6945 6.22126 14.6926 6.3609C14.6926 6.40364 14.6925 6.44638 14.6925 6.49041C14.6869 6.85969 14.6139 7.182 14.3437 7.45313C14.2017 7.53992 14.2017 7.53992 14.0391 7.62305C13.7332 7.78681 13.4961 7.98482 13.2479 8.22583C12.9303 8.53057 12.9303 8.53057 12.7207 8.53418C12.5625 8.48438 12.5625 8.48438 12.4687 8.37891C12.4138 8.2278 12.4242 8.16802 12.4687 8.01563C12.5621 7.87638 12.6796 7.7601 12.7969 7.64063C12.8268 7.61005 12.8568 7.57948 12.8877 7.54798C13.1311 7.31652 13.3985 7.14798 13.6891 6.98292C13.8572 6.89566 13.8572 6.89566 13.9687 6.75C13.9739 6.60536 13.9761 6.46176 13.9763 6.31708C13.9765 6.27218 13.9768 6.22728 13.977 6.18102C13.9777 6.032 13.978 5.88298 13.9783 5.73395C13.9785 5.6306 13.9788 5.52725 13.9791 5.4239C13.9796 5.20697 13.9798 4.99005 13.98 4.77312C13.9803 4.49506 13.9814 4.21701 13.9827 3.93896C13.9836 3.72539 13.9838 3.51182 13.9839 3.29825C13.9841 3.19574 13.9844 3.09323 13.985 2.99072C13.9858 2.8473 13.9858 2.70391 13.9855 2.56049C13.9859 2.51809 13.9863 2.47569 13.9868 2.432C13.9853 2.2083 13.9762 2.05499 13.8281 1.875C13.6966 1.76792 13.6966 1.76792 13.5498 1.78418C13.3659 1.84048 13.3209 1.90092 13.2187 2.0625C13.2009 2.18631 13.1936 2.29045 13.1954 2.4139C13.1951 2.44846 13.1949 2.48302 13.1946 2.51862C13.1942 2.59333 13.1942 2.66804 13.1945 2.74274C13.1951 2.86096 13.1946 2.97913 13.1938 3.09734C13.1925 3.30551 13.1923 3.51367 13.1923 3.72184C13.1924 4.05536 13.1918 4.38887 13.1897 4.72239C13.1893 4.83891 13.1897 4.9554 13.1901 5.07192C13.1898 5.14319 13.1895 5.21446 13.1892 5.28573C13.1895 5.31817 13.1899 5.35061 13.1903 5.38403C13.1889 5.51568 13.1857 5.60471 13.1105 5.71524C12.9738 5.80211 12.8597 5.78485 12.7031 5.76563C12.6003 5.69836 12.6003 5.69836 12.5156 5.57813C12.4881 5.4301 12.4911 5.284 12.493 5.13382C12.4928 5.08883 12.4926 5.04384 12.4924 4.99749C12.4922 4.89986 12.4923 4.80224 12.4928 4.70461C12.4936 4.55016 12.4933 4.39574 12.4926 4.24129C12.4913 3.85775 12.4919 3.47421 12.4924 3.09067C12.4928 2.76653 12.4924 2.44241 12.4911 2.11827C12.4907 1.96599 12.4915 1.81375 12.4923 1.66147C12.4921 1.56825 12.4917 1.47503 12.4914 1.38181C12.4919 1.33938 12.4924 1.29696 12.493 1.25325C12.4922 1.01858 12.4922 1.01858 12.3794 0.817642C12.274 0.744988 12.2207 0.723387 12.0937 0.723635C12.0628 0.722608 12.0319 0.721581 12 0.720522C11.8473 0.768551 11.8027 0.849554 11.7187 0.984377ZM9.23437 12.75C9.23437 12.982 9.23437 13.2141 9.23437 13.4531C10.7967 13.4531 12.3591 13.4531 13.9687 13.4531C13.9687 13.2211 13.9687 12.9891 13.9687 12.75C12.4064 12.75 10.8441 12.75 9.23437 12.75Z" fill="black" fill-opacity="0.52"/>
<path d="M20.833 4.1543C21.1764 4.35904 21.2935 4.65286 21.4219 5.01563C21.4519 5.01399 21.4819 5.01236 21.5129 5.01068C21.877 4.99928 22.159 5.06383 22.4371 5.31916C22.7747 5.70278 22.7091 6.20622 22.6992 6.68262C22.6983 6.76199 22.6974 6.84137 22.6966 6.92075C22.6946 7.11386 22.6914 7.30692 22.6875 7.5C22.7257 7.49915 22.7639 7.4983 22.8033 7.49743C22.8537 7.49676 22.904 7.4961 22.9559 7.49542C23.0057 7.49457 23.0556 7.49372 23.1069 7.49285C23.3569 7.50535 23.5284 7.5946 23.707 7.76642C23.8908 7.97183 24.011 8.14382 24.0136 8.42617C24.0142 8.47036 24.0148 8.51454 24.0154 8.56007C24.0155 8.60772 24.0156 8.65537 24.0157 8.70447C24.0162 8.7791 24.0162 8.7791 24.0167 8.85524C24.0171 8.96092 24.0174 9.0666 24.0174 9.17228C24.0176 9.33113 24.0193 9.48991 24.021 9.64874C24.0284 11.0439 23.6673 12.1227 22.7047 13.1543C22.6085 13.2508 22.511 13.3398 22.4062 13.4268C22.2474 13.5624 22.1836 13.6436 22.1569 13.8503C22.1547 13.9137 22.1547 13.9137 22.1524 13.9783C22.1506 14.0242 22.1488 14.0701 22.147 14.1174C22.1455 14.165 22.1441 14.2127 22.1426 14.2617C22.1407 14.3101 22.1389 14.3584 22.1371 14.4082C22.1327 14.5273 22.1286 14.6465 22.125 14.7656C22.2027 14.7853 22.2027 14.7853 22.2821 14.8054C22.4775 14.8671 22.5326 14.9235 22.6406 15.0938C22.6866 15.2316 22.6929 15.3199 22.6921 15.4634C22.6919 15.5074 22.6918 15.5514 22.6916 15.5966C22.6912 15.6424 22.6908 15.6882 22.6904 15.7354C22.6902 15.7817 22.69 15.828 22.6898 15.8757C22.6892 15.9901 22.6884 16.1044 22.6875 16.2187C22.7307 16.2373 22.7307 16.2373 22.7747 16.2562C22.9474 16.3532 23.0078 16.5057 23.0625 16.6875C23.089 16.9155 23.0877 17.1426 23.086 17.3718C23.0862 17.4407 23.0864 17.5097 23.0868 17.5786C23.0874 17.765 23.0869 17.9513 23.0861 18.1376C23.0855 18.3329 23.0858 18.5283 23.0859 18.7236C23.0861 19.0514 23.0854 19.3792 23.0844 19.707C23.0831 20.0858 23.083 20.4646 23.0836 20.8434C23.0841 21.2082 23.0838 21.5731 23.0831 21.938C23.0829 22.0931 23.0829 22.2482 23.0831 22.4033C23.0833 22.5858 23.0828 22.7684 23.0818 22.951C23.0816 23.0179 23.0815 23.0849 23.0818 23.1518C23.082 23.2433 23.0814 23.3347 23.0807 23.4262C23.0805 23.5029 23.0805 23.5029 23.0803 23.5811C23.0582 23.7515 22.9973 23.8777 22.875 24C22.7976 24.0048 22.72 24.0063 22.6425 24.0066C22.5922 24.0068 22.5418 24.0071 22.4899 24.0074C22.4064 24.0075 22.4064 24.0075 22.3211 24.0076C22.2628 24.0078 22.2045 24.008 22.1444 24.0083C21.9841 24.0088 21.8237 24.0092 21.6633 24.0094C21.5632 24.0095 21.463 24.0097 21.3629 24.0099C21.0499 24.0106 20.7369 24.011 20.4238 24.0112C20.0621 24.0114 19.7003 24.0122 19.3385 24.0136C19.0592 24.0146 18.7798 24.0151 18.5005 24.0151C18.3335 24.0152 18.1666 24.0155 17.9996 24.0163C17.8134 24.0172 17.6272 24.017 17.441 24.0167C17.3855 24.0171 17.3299 24.0176 17.2727 24.018C17.1968 24.0176 17.1968 24.0176 17.1194 24.0172C17.0753 24.0173 17.0312 24.0174 16.9859 24.0174C16.8533 23.9966 16.8135 23.9659 16.7344 23.8594C16.6831 23.7057 16.6815 23.593 16.6812 23.4311C16.6809 23.3408 16.6809 23.3408 16.6806 23.2487C16.6806 23.1819 16.6806 23.115 16.6807 23.0481C16.6805 22.9778 16.6804 22.9076 16.6802 22.8373C16.6798 22.6462 16.6797 22.4551 16.6796 22.264C16.6796 22.1045 16.6794 21.9451 16.6793 21.7856C16.6789 21.4093 16.6788 21.0331 16.6788 20.6569C16.6788 20.2687 16.6783 19.8805 16.6776 19.4923C16.677 19.1591 16.6767 18.8259 16.6768 18.4927C16.6768 18.2936 16.6766 18.0946 16.6761 17.8956C16.6757 17.7083 16.6757 17.5211 16.676 17.3339C16.6761 17.2652 16.676 17.1965 16.6757 17.1278C16.6753 17.034 16.6756 16.9402 16.6759 16.8464C16.6759 16.7939 16.6758 16.7414 16.6758 16.6873C16.6926 16.4857 16.7429 16.3568 16.875 16.2041C16.9687 16.125 16.9687 16.125 17.0625 16.125C17.0609 16.064 17.0592 16.0029 17.0575 15.9401C17.0562 15.8591 17.0549 15.7782 17.0537 15.6973C17.0525 15.6571 17.0513 15.617 17.0501 15.5757C17.0473 15.3312 17.0671 15.1651 17.2031 14.9531C17.3468 14.8094 17.4751 14.7949 17.6719 14.7656C17.6694 14.5693 17.665 14.373 17.6601 14.1768C17.6595 14.1214 17.6588 14.066 17.6581 14.0089C17.6491 13.6866 17.6278 13.4811 17.4375 13.2188C17.4076 13.1734 17.3778 13.1281 17.347 13.0814C17.3169 13.0359 17.2868 12.9903 17.2558 12.9434C16.8869 12.3569 16.7293 11.6961 16.6406 11.0156C16.6345 10.9702 16.6345 10.9702 16.6283 10.9238C16.5808 10.5197 16.5842 10.1139 16.5826 9.70752C16.5824 9.66768 16.5822 9.62784 16.582 9.58679C16.581 9.37623 16.5803 9.16568 16.5799 8.95512C16.5794 8.73888 16.5778 8.52267 16.5759 8.30645C16.5747 8.13891 16.5743 7.97138 16.5741 7.80383C16.5739 7.72415 16.5733 7.64447 16.5725 7.56479C16.5627 6.6111 16.5627 6.6111 16.8647 6.2849C16.9432 6.2129 17.02 6.15173 17.1094 6.09375C17.1367 6.07599 17.164 6.05822 17.1921 6.03992C17.3423 5.9827 17.4768 5.99118 17.6367 5.99414C17.7255 5.99541 17.7255 5.99541 17.8161 5.9967C17.8839 5.99834 17.8839 5.99834 17.9531 6C17.9509 5.95021 17.9488 5.90042 17.9465 5.84912C17.9235 5.10842 17.9235 5.10842 18.2162 4.7937C18.4899 4.53882 18.7415 4.48927 19.1078 4.49213C19.2128 4.49958 19.3053 4.5178 19.4062 4.54688C19.4275 4.51304 19.4488 4.4792 19.4707 4.44434C19.8228 4.06704 20.3539 3.94048 20.833 4.1543ZM20.0625 4.96875C19.9876 5.11842 20.008 5.28083 20.0075 5.44527C20.0072 5.48484 20.0068 5.5244 20.0065 5.56516C20.0059 5.65123 20.0053 5.7373 20.0048 5.82337C20.0041 5.95948 20.003 6.09558 20.0018 6.23169C19.9985 6.61872 19.9957 7.00576 19.9933 7.3928C19.9918 7.62937 19.9898 7.86594 19.9876 8.1025C19.9869 8.19279 19.9863 8.28308 19.9859 8.37337C19.9853 8.49952 19.9842 8.62565 19.9829 8.75179C19.9829 8.78927 19.9829 8.82675 19.9829 8.86537C19.9805 9.04423 19.9766 9.12884 19.875 9.28125C19.7197 9.32813 19.7197 9.32813 19.5469 9.32813C19.3802 9.20352 19.3192 9.13304 19.2838 8.92593C19.2828 8.86044 19.2832 8.79492 19.2845 8.72944C19.2843 8.67555 19.2843 8.67555 19.284 8.62057C19.2837 8.54287 19.284 8.46516 19.2848 8.38747C19.2859 8.26452 19.2857 8.14164 19.2851 8.01869C19.2842 7.75789 19.2851 7.49712 19.2861 7.23633C19.2871 6.93378 19.2873 6.63125 19.2861 6.3287C19.2859 6.2075 19.2869 6.08634 19.288 5.96515C19.2879 5.89103 19.2877 5.81692 19.2875 5.74281C19.2881 5.70905 19.2887 5.6753 19.2893 5.64052C19.2878 5.48955 19.2844 5.41085 19.1796 5.29794C19.0352 5.22972 18.9474 5.25107 18.7969 5.29688C18.684 5.46623 18.6891 5.59038 18.6889 5.78612C18.6885 5.8215 18.6881 5.85688 18.6877 5.89334C18.6865 6.01037 18.6859 6.1274 18.6853 6.24445C18.6846 6.32577 18.6838 6.40709 18.6829 6.48842C18.6808 6.70265 18.6792 6.91689 18.6777 7.13113C18.6752 7.47389 18.6722 7.81664 18.6689 8.1594C18.6678 8.27915 18.667 8.3989 18.6663 8.51866C18.6657 8.59213 18.665 8.6656 18.6644 8.73906C18.6642 8.789 18.6642 8.789 18.664 8.83995C18.6624 8.99365 18.6565 9.13421 18.6094 9.28125C18.2656 9.33854 18.2656 9.33854 18.1201 9.29004C18.0469 9.23438 18.0469 9.23438 18 9.14063C17.9952 9.07078 17.9931 9.00073 17.9926 8.93072C17.9921 8.88722 17.9916 8.84373 17.9911 8.79891C17.9908 8.75179 17.9904 8.70467 17.9901 8.65613C17.9888 8.55688 17.9874 8.45764 17.9861 8.3584C17.9841 8.20152 17.9824 8.04465 17.9812 7.88777C17.9799 7.73665 17.9777 7.58556 17.9754 7.43445C17.9753 7.38752 17.9751 7.34059 17.975 7.29224C17.9738 7.22655 17.9738 7.22655 17.9726 7.15954C17.9721 7.10188 17.9721 7.10188 17.9715 7.04306C17.9488 6.91257 17.9005 6.84752 17.8125 6.75C17.7261 6.69911 17.7261 6.69911 17.625 6.70313C17.4517 6.78603 17.4517 6.78603 17.3437 6.9375C17.3387 7.04476 17.3368 7.15217 17.3362 7.25955C17.3359 7.29273 17.3357 7.32591 17.3355 7.36009C17.3348 7.47051 17.3345 7.58093 17.3342 7.69135C17.3341 7.72933 17.3339 7.76732 17.3338 7.80646C17.3331 8.0085 17.3327 8.21053 17.3325 8.41256C17.3323 8.57799 17.3316 8.7434 17.3305 8.90883C17.3151 11.0791 17.3151 11.0791 18.2204 13.0188C18.5124 13.5288 18.4033 14.2448 18.4219 14.7656C19.3964 14.7656 20.3709 14.7656 21.375 14.7656C21.3905 14.3944 21.4059 14.0231 21.4219 13.6406C21.5805 13.1648 21.5805 13.1648 21.7676 12.9697C21.8027 12.9322 21.8379 12.8947 21.8741 12.856C21.9844 12.75 21.9844 12.75 22.0993 12.661C22.547 12.2917 22.8739 11.7468 23.0625 11.2031C23.0789 11.1568 23.0954 11.1104 23.1123 11.0627C23.269 10.5613 23.2773 10.076 23.2719 9.55346C23.2705 9.40844 23.2709 9.26349 23.2715 9.11847C23.2712 9.026 23.2708 8.93353 23.2703 8.84106C23.2704 8.79786 23.2706 8.75465 23.2707 8.71013C23.2701 8.67018 23.2695 8.63023 23.2689 8.58907C23.2685 8.53651 23.2685 8.53651 23.2682 8.48288C23.2446 8.36353 23.2073 8.32084 23.1094 8.25C22.9417 8.24996 22.9417 8.24996 22.7812 8.29688C22.659 8.48016 22.6744 8.63564 22.6747 8.84821C22.6737 8.93149 22.6727 9.01477 22.6717 9.09805C22.6707 9.22899 22.6699 9.35991 22.6696 9.49085C22.6692 9.61748 22.6676 9.74405 22.6659 9.87067C22.6661 9.9093 22.6663 9.94794 22.6666 9.98775C22.6613 10.3031 22.58 10.5606 22.3535 10.7871C22.2756 10.8379 22.1968 10.8876 22.116 10.9338C21.8442 11.0899 21.6185 11.2623 21.3902 11.4774C21.081 11.7632 21.081 11.7632 20.9317 11.7737C20.8952 11.7672 20.8588 11.7606 20.8213 11.7539C20.7842 11.7479 20.7472 11.7418 20.709 11.7356C20.6674 11.7273 20.6674 11.7273 20.625 11.7188C20.5614 11.3775 20.5614 11.3775 20.6362 11.2266C20.8971 10.8563 21.2277 10.6173 21.6132 10.3934C21.6583 10.3667 21.7035 10.34 21.75 10.3125C21.7832 10.2959 21.8165 10.2793 21.8508 10.2621C21.9874 10.1199 21.9636 9.95833 21.9617 9.77162C21.9621 9.73075 21.9624 9.68988 21.9627 9.64778C21.9636 9.51246 21.963 9.3772 21.9624 9.24188C21.9625 9.14795 21.9627 9.05401 21.9629 8.96008C21.9632 8.76309 21.9628 8.56611 21.9619 8.36912C21.9609 8.11654 21.9615 7.86399 21.9626 7.61141C21.9633 7.41738 21.9631 7.22336 21.9626 7.02933C21.9624 6.9362 21.9626 6.84307 21.963 6.74995C21.9635 6.61976 21.9628 6.48963 21.9617 6.35945C21.9621 6.32089 21.9625 6.28234 21.9629 6.24262C21.9604 6.07362 21.9516 5.97268 21.8514 5.8338C21.7501 5.75159 21.7501 5.75159 21.6035 5.76856C21.4551 5.80158 21.4551 5.80158 21.375 5.95313C21.3598 6.09304 21.3598 6.09304 21.3608 6.25441C21.3602 6.29994 21.3602 6.29994 21.3596 6.34639C21.3584 6.44669 21.3578 6.54698 21.3572 6.64728C21.3565 6.71704 21.3557 6.78681 21.3548 6.85657C21.3527 7.04029 21.351 7.224 21.3495 7.40773C21.3471 7.70163 21.3441 7.99553 21.3407 8.28943C21.3397 8.39204 21.3389 8.49466 21.3382 8.59728C21.3375 8.66032 21.3369 8.72336 21.3362 8.7864C21.3356 8.86882 21.3356 8.86882 21.3349 8.95292C21.3292 9.07104 21.3158 9.16884 21.2812 9.28125C20.9375 9.33854 20.9375 9.33854 20.792 9.29004C20.7187 9.23438 20.7187 9.23438 20.6719 9.14063C20.6671 9.01147 20.6651 8.88347 20.6652 8.7543C20.665 8.71435 20.6649 8.6744 20.6647 8.63325C20.6644 8.54634 20.6641 8.45942 20.664 8.37251C20.6636 8.23501 20.6629 8.09752 20.662 7.96002C20.6596 7.56902 20.6573 7.17802 20.6566 6.78701C20.6561 6.548 20.6547 6.30902 20.6528 6.07002C20.6522 5.97885 20.652 5.88768 20.6521 5.79652C20.6522 5.66902 20.6511 5.54158 20.6498 5.41409C20.6501 5.37634 20.6504 5.33859 20.6508 5.29969C20.6479 5.1317 20.6392 5.03466 20.5372 4.89825C20.4409 4.81986 20.4409 4.81986 20.3174 4.80762C20.1842 4.83153 20.1439 4.86289 20.0625 4.96875ZM17.8125 15.5156C17.8125 15.7013 17.8125 15.8869 17.8125 16.0781C19.1737 16.0781 20.535 16.0781 21.9375 16.0781C21.9375 15.8925 21.9375 15.7069 21.9375 15.5156C20.5762 15.5156 19.215 15.5156 17.8125 15.5156ZM17.4375 16.8281C17.4375 18.9628 17.4375 21.0975 17.4375 23.2969C19.0462 23.2969 20.655 23.2969 22.3125 23.2969C22.3125 21.1622 22.3125 19.0275 22.3125 16.8281C20.7037 16.8281 19.095 16.8281 17.4375 16.8281Z" fill="black" fill-opacity="0.52"/>
<path d="M4.15062 6.7857C4.32593 6.86908 4.47142 6.9721 4.59373 7.125C4.59373 7.15594 4.59373 7.18687 4.59373 7.21875C4.61911 7.21132 4.64449 7.20388 4.67064 7.19623C4.99666 7.12444 5.34444 7.12505 5.6367 7.29675C5.85421 7.46279 6.01424 7.65835 6.09373 7.92187C6.10018 8.05359 6.10265 8.18015 6.09959 8.31152C6.09917 8.34624 6.09875 8.38095 6.09831 8.41672C6.09721 8.50177 6.09553 8.58683 6.09373 8.67187C6.12467 8.6564 6.15561 8.64094 6.18748 8.625C6.5245 8.60135 6.82668 8.63012 7.09111 8.85736C7.38512 9.16945 7.46472 9.44562 7.46524 9.87512C7.46549 9.92665 7.46549 9.92665 7.46574 9.97922C7.46615 10.0921 7.46588 10.2049 7.46556 10.3178C7.46562 10.3973 7.46571 10.4768 7.46583 10.5563C7.46597 10.7229 7.46577 10.8895 7.46533 11.0561C7.4648 11.2672 7.4651 11.4783 7.46567 11.6894C7.46601 11.8538 7.4659 12.0182 7.46565 12.1826C7.46559 12.2602 7.46567 12.3379 7.46589 12.4156C7.46741 13.1009 7.44282 13.8024 7.25975 14.4668C7.24993 14.5032 7.2401 14.5396 7.22998 14.5771C7.08249 15.0901 6.8334 15.5661 6.52165 15.9985C6.41459 16.1596 6.41345 16.3111 6.40703 16.4991C6.40506 16.5536 6.4031 16.6081 6.40108 16.6643C6.39923 16.7213 6.39739 16.7782 6.39549 16.8369C6.39246 16.9232 6.39246 16.9232 6.38936 17.0111C6.38438 17.1533 6.3796 17.2954 6.37498 17.4375C6.44061 17.4466 6.44061 17.4466 6.50755 17.4558C6.68593 17.4901 6.76291 17.5442 6.89061 17.6719C7.01449 17.8936 6.995 18.1199 6.99022 18.3662C6.9898 18.4076 6.98937 18.4491 6.98894 18.4917C6.98784 18.5934 6.98616 18.6952 6.98436 18.7969C7.02013 18.8056 7.0559 18.8143 7.09276 18.8232C7.23842 18.9012 7.27158 18.9699 7.33127 19.1206C7.38279 19.3006 7.37886 19.4793 7.37756 19.6654C7.37793 19.7307 7.37793 19.7307 7.3783 19.7974C7.37892 19.9406 7.37851 20.0837 7.37804 20.2269C7.37813 20.3268 7.37827 20.4266 7.37844 20.5265C7.37865 20.7354 7.37835 20.9443 7.37769 21.1532C7.37689 21.4209 7.37735 21.6886 7.3782 21.9563C7.3787 22.1624 7.37854 22.3684 7.37818 22.5745C7.37808 22.6732 7.3782 22.7719 7.37853 22.8706C7.37888 23.0085 7.37834 23.1464 7.37756 23.2843C7.37798 23.3453 7.37798 23.3453 7.37842 23.4077C7.37588 23.649 7.35108 23.8208 7.17186 24C7.0946 24.005 7.01712 24.0068 6.9397 24.0072C6.86428 24.0078 6.86428 24.0078 6.78734 24.0084C6.70388 24.0087 6.70388 24.0087 6.61873 24.009C6.5605 24.0094 6.50228 24.0098 6.44229 24.0102C6.24865 24.0114 6.05501 24.0121 5.86137 24.0128C5.79479 24.0131 5.72821 24.0133 5.66162 24.0136C5.38469 24.0146 5.10775 24.0155 4.83082 24.016C4.43357 24.0168 4.03634 24.0183 3.6391 24.021C3.36 24.0228 3.0809 24.0237 2.80179 24.024C2.63499 24.0241 2.46822 24.0247 2.30143 24.0262C2.11534 24.0279 1.92928 24.0277 1.74318 24.0273C1.66015 24.0285 1.66015 24.0285 1.57544 24.0297C1.20284 24.0268 1.20284 24.0268 1.04392 23.8893C0.97571 23.7477 0.960173 23.6515 0.959457 23.4946C0.959215 23.4436 0.958974 23.3925 0.958725 23.3399C0.95945 23.287 0.960175 23.2342 0.960922 23.1797C0.960197 23.1268 0.959472 23.0739 0.958725 23.0195C0.960534 22.6372 0.960534 22.6372 1.06786 22.4416C1.1773 22.3551 1.22181 22.3284 1.35936 22.333C1.3903 22.3329 1.42123 22.3329 1.45311 22.3328C1.54686 22.3594 1.54686 22.3594 1.73436 22.5469C1.73436 22.7944 1.73436 23.0419 1.73436 23.2969C3.34311 23.2969 4.95186 23.2969 6.60936 23.2969C6.60936 22.0439 6.60936 20.7909 6.60936 19.5C5.00061 19.5 3.39186 19.5 1.73436 19.5C1.73436 20.0723 1.73436 20.6447 1.73436 21.2344C1.54686 21.4219 1.54686 21.4219 1.45311 21.4484C1.42217 21.4484 1.39123 21.4483 1.35936 21.4482C1.31295 21.4498 1.31295 21.4498 1.26561 21.4514C1.11434 21.4038 1.0683 21.32 0.98436 21.1875C0.957738 21.0502 0.959159 20.9158 0.961105 20.7762C0.961037 20.7368 0.960969 20.6973 0.960898 20.6566C0.960976 20.5734 0.961516 20.4901 0.96249 20.4068C0.963844 20.28 0.963456 20.1534 0.962845 20.0266C0.963137 19.9454 0.963531 19.8643 0.964035 19.7831C0.963897 19.7455 0.96376 19.708 0.963618 19.6693C0.967702 19.4232 1.00968 19.2498 1.12498 19.0312C1.17502 18.9897 1.17502 18.9897 1.22606 18.9474C1.38976 18.7511 1.33639 18.4703 1.33537 18.2249C1.3397 17.9468 1.36241 17.7907 1.54686 17.5781C1.68697 17.4756 1.74746 17.4375 1.92186 17.4375C1.91806 17.2705 1.91277 17.1035 1.90721 16.9365C1.90562 16.8657 1.90562 16.8657 1.90401 16.7934C1.88673 16.3175 1.71127 16.1406 1.37694 15.8232C1.04329 15.4981 0.788412 15.1717 0.562485 14.7656C0.539704 14.727 0.516924 14.6884 0.493454 14.6486C0.235069 14.18 0.0446116 13.5606 0.0385625 13.0255C0.0379609 12.9789 0.0373592 12.9322 0.0367393 12.8842C0.03622 12.8093 0.03622 12.8093 0.0356901 12.733C0.0353117 12.6811 0.0349333 12.6293 0.0345435 12.5759C0.0338961 12.4663 0.0333929 12.3567 0.0330236 12.2472C0.0324831 12.1354 0.0315237 12.0236 0.0301397 11.9118C0.0281365 11.75 0.0273809 11.5882 0.026901 11.4263C0.0260803 11.3767 0.0252596 11.3271 0.0244141 11.276C0.0254296 10.9273 0.0776434 10.6705 0.321518 10.4051C0.681871 10.1475 0.928773 10.1152 1.35936 10.1719C1.35862 10.1227 1.35789 10.0736 1.35713 10.0229C1.35457 9.83911 1.35296 9.65531 1.35163 9.47149C1.35093 9.39221 1.34997 9.31292 1.34875 9.23364C1.34703 9.11913 1.34624 9.00465 1.34563 8.89013C1.3449 8.85516 1.34417 8.82018 1.34343 8.78414C1.34334 8.49447 1.39636 8.2315 1.58916 8.00427C1.62064 7.97901 1.65212 7.95375 1.68455 7.92773C1.71592 7.90175 1.74728 7.87577 1.77959 7.849C1.98748 7.70136 2.12064 7.67647 2.37889 7.68164C2.43376 7.68248 2.48862 7.68333 2.54515 7.6842C2.58696 7.68529 2.62878 7.68638 2.67186 7.6875C2.67482 7.66139 2.67778 7.63529 2.68083 7.6084C2.73067 7.29783 2.85266 7.09397 3.09373 6.89062C3.41313 6.69712 3.79321 6.67881 4.15062 6.7857ZM3.46873 7.59375C3.39336 7.74449 3.41468 7.90895 3.41447 8.07457C3.41423 8.11459 3.41399 8.15461 3.41374 8.19585C3.41324 8.28291 3.41284 8.36998 3.41252 8.45704C3.41197 8.59473 3.41106 8.73241 3.41003 8.87009C3.40714 9.26161 3.40461 9.65312 3.40305 10.0446C3.40207 10.284 3.40041 10.5233 3.39832 10.7626C3.39766 10.8539 3.39725 10.9452 3.3971 11.0366C3.39687 11.1642 3.39579 11.2918 3.39451 11.4194C3.39465 11.4573 3.39479 11.4952 3.39494 11.5343C3.39112 11.7896 3.39112 11.7896 3.30913 11.9061C3.2163 11.9645 3.15622 11.9734 3.04686 11.9736C3.01496 11.9745 2.98305 11.9754 2.95018 11.9764C2.85936 11.9531 2.85936 11.9531 2.7845 11.8774C2.69747 11.7295 2.70099 11.6252 2.7007 11.454C2.70045 11.4231 2.70019 11.3922 2.69994 11.3604C2.69948 11.2935 2.69934 11.2266 2.69948 11.1598C2.69969 11.054 2.69904 10.9482 2.69815 10.8424C2.69614 10.5798 2.69562 10.3171 2.69505 10.0545C2.69451 9.83229 2.69341 9.61015 2.69155 9.38799C2.69091 9.28373 2.69111 9.17949 2.69133 9.07523C2.69089 9.01139 2.69042 8.94755 2.6899 8.88371C2.6898 8.82797 2.6897 8.77222 2.6896 8.71478C2.68283 8.57896 2.68283 8.57896 2.60921 8.48981C2.48712 8.4079 2.39276 8.41965 2.24998 8.4375C2.11466 8.54276 2.11 8.57306 2.08709 8.7535C2.08425 8.82814 2.08219 8.9028 2.08075 8.97748C2.0788 9.03867 2.0788 9.03867 2.07681 9.1011C2.07284 9.23634 2.07006 9.37156 2.06761 9.50683C2.06675 9.55312 2.06588 9.59941 2.06499 9.6471C2.06068 9.89235 2.05748 10.1376 2.05498 10.3829C2.05269 10.5854 2.04813 10.7877 2.04152 10.9901C2.03353 11.235 2.02952 11.4796 2.02828 11.7246C2.02717 11.8176 2.0247 11.9106 2.02081 12.0036C1.98775 12.4986 1.98775 12.4986 2.18631 12.931C2.37649 13.088 2.58565 13.1963 2.80622 13.304C3.08597 13.4588 3.36918 13.7064 3.4658 14.0156C3.46941 14.1885 3.44031 14.2597 3.32811 14.3906C3.19224 14.4443 3.11784 14.4435 2.97655 14.4082C2.83107 14.3282 2.73984 14.2296 2.62498 14.1094C2.36909 13.859 2.08989 13.6784 1.77904 13.5042C1.58319 13.3656 1.48165 13.2106 1.40623 12.9844C1.40067 12.845 1.39755 12.7065 1.39635 12.5671C1.39503 12.4829 1.39369 12.3988 1.39232 12.3147C1.39038 12.1821 1.38865 12.0495 1.38742 11.9169C1.38613 11.7889 1.38398 11.6609 1.3817 11.5329C1.38155 11.4933 1.38139 11.4537 1.38124 11.4129C1.37672 11.1926 1.37672 11.1926 1.29333 10.9917C1.20364 10.9077 1.15398 10.8824 1.03123 10.875C0.906263 10.9214 0.857146 10.9419 0.79686 11.0625C0.791744 11.1267 0.789409 11.1912 0.788563 11.2556C0.787961 11.2956 0.787359 11.3355 0.786739 11.3767C0.786393 11.4201 0.786047 11.4636 0.78569 11.5084C0.785312 11.5534 0.784933 11.5984 0.784544 11.6448C0.783894 11.7406 0.783392 11.8364 0.783024 11.9322C0.782488 12.029 0.781536 12.1259 0.78014 12.2228C0.769547 12.9575 0.809993 13.606 1.16307 14.2676C1.18777 14.3148 1.18777 14.3148 1.21297 14.3631C1.39076 14.6952 1.59543 14.9602 1.86821 15.2208C1.90141 15.2529 1.93462 15.2849 1.96883 15.318C2.03537 15.3817 2.10272 15.4445 2.17097 15.5064C2.73856 16.0457 2.64024 16.6787 2.67186 17.4375C3.64639 17.4375 4.62092 17.4375 5.62498 17.4375C5.64045 17.0044 5.65592 16.5712 5.67186 16.125C5.82866 15.6546 5.82866 15.6546 5.96776 15.4541C6.60551 14.4827 6.71723 13.4269 6.7205 12.291C6.72093 12.2138 6.72135 12.1366 6.72179 12.0594C6.72255 11.8993 6.72292 11.7393 6.72306 11.5793C6.72331 11.3745 6.72509 11.1697 6.72722 10.9649C6.72861 10.8063 6.72895 10.6476 6.729 10.489C6.72919 10.4134 6.72977 10.3379 6.73076 10.2623C6.73202 10.1571 6.73179 10.052 6.7312 9.9468C6.73144 9.88713 6.73168 9.82746 6.73193 9.76598C6.69549 9.56797 6.6255 9.49736 6.46873 9.375C6.33126 9.375 6.26602 9.39715 6.15822 9.48135C6.07408 9.58723 6.07603 9.64845 6.0757 9.78277C6.07522 9.82736 6.07475 9.87194 6.07426 9.91787C6.0744 9.96592 6.07455 10.014 6.07469 10.0635C6.07393 10.1376 6.07393 10.1376 6.07315 10.2132C6.07154 10.3713 6.07081 10.5294 6.0703 10.6875C6.06962 10.8955 6.06804 11.1035 6.0659 11.3115C6.06604 11.3596 6.06619 11.4076 6.06633 11.4571C6.06586 11.5017 6.06538 11.5463 6.0649 11.5922C6.0648 11.6315 6.0647 11.6707 6.0646 11.7111C6.04283 11.8355 6.00502 11.8768 5.90623 11.9531C5.81541 11.9734 5.81541 11.9734 5.71873 11.9736C5.68683 11.9745 5.65493 11.9754 5.62206 11.9764C5.53123 11.9531 5.53123 11.9531 5.45637 11.8804C5.36676 11.724 5.37108 11.5819 5.37257 11.4066C5.37232 11.3707 5.37207 11.3348 5.37181 11.2978C5.37135 11.22 5.37121 11.1421 5.37136 11.0643C5.37157 10.9412 5.37091 10.8181 5.37003 10.6949C5.36801 10.3892 5.36749 10.0836 5.36692 9.77785C5.36638 9.51936 5.36528 9.26089 5.36342 9.0024C5.36278 8.881 5.36298 8.75962 5.36321 8.63822C5.36277 8.56395 5.36229 8.48969 5.36177 8.41542C5.36206 8.3816 5.36235 8.34777 5.36264 8.31292C5.36097 8.17755 5.35895 8.08466 5.28108 7.97123C5.15829 7.8935 5.06323 7.9042 4.92186 7.92187C4.83713 7.96871 4.83713 7.96871 4.78123 8.0625C4.76721 8.18244 4.76168 8.29113 4.76245 8.41112C4.76213 8.4465 4.7618 8.48188 4.76146 8.51833C4.76053 8.63538 4.76055 8.7524 4.76054 8.86944C4.75999 8.95077 4.75937 9.03209 4.75867 9.11342C4.75697 9.32765 4.75602 9.54188 4.75531 9.75612C4.75415 10.0989 4.75229 10.4416 4.7496 10.7844C4.74883 10.9042 4.74866 11.0239 4.74852 11.1437C4.74806 11.2171 4.74758 11.2906 4.74707 11.3641C4.74719 11.3974 4.74731 11.4306 4.74744 11.465C4.74568 11.6342 4.73903 11.7651 4.64061 11.9062C4.49765 11.9777 4.37612 11.9642 4.21873 11.9531C4.13911 11.9062 4.13911 11.9062 4.07811 11.8125C4.06432 11.6802 4.05905 11.5582 4.06007 11.4259C4.05982 11.3865 4.05957 11.3471 4.05931 11.3064C4.05885 11.2208 4.05871 11.1352 4.05886 11.0495C4.05907 10.914 4.05841 10.7785 4.05753 10.6429C4.0558 10.355 4.05516 10.0672 4.05467 9.77929C4.05411 9.44604 4.0531 9.11281 4.05092 8.77956C4.05029 8.64607 4.05048 8.51259 4.05071 8.37909C4.05027 8.2971 4.04979 8.2151 4.04927 8.13311C4.04956 8.09604 4.04985 8.05897 4.05014 8.02077C4.04777 7.80801 4.02317 7.66898 3.89061 7.5C3.71711 7.40747 3.61758 7.48513 3.46873 7.59375ZM2.10936 18.1875C2.10936 18.3731 2.10936 18.5587 2.10936 18.75C3.47061 18.75 4.83186 18.75 6.23436 18.75C6.23436 18.5644 6.23436 18.3787 6.23436 18.1875C4.87311 18.1875 3.51186 18.1875 2.10936 18.1875Z" fill="black" fill-opacity="0.52"/>
</g>
<defs>
<clipPath id="clip0_55_1615">
<rect width="24" height="24" fill="white"/>
</clipPath>
</defs>
</svg>
