<svg width="24" height="26" viewBox="0 0 24 26" fill="none" xmlns="http://www.w3.org/2000/svg">
<path d="M22.889 25.8477C22.8046 25.7969 21.9609 25.0758 21.0093 24.2531L19.2843 22.7551L13.9171 22.7398L8.55463 22.7195L8.20307 22.6078C7.69213 22.4402 7.28901 22.1711 6.90932 21.7648C6.27182 21.0742 6.03745 20.3938 6.02807 19.2207C6.02338 18.591 6.03276 18.4895 6.12182 18.332C6.41245 17.7887 7.08745 17.7887 7.37807 18.327C7.45307 18.4691 7.47651 18.6316 7.49995 19.241C7.52338 19.8859 7.54213 20.0129 7.63588 20.2211C7.77182 20.5105 8.06245 20.8254 8.3437 20.9828L8.55463 21.0996L14.1093 21.125L19.664 21.1504L19.8374 21.2621C19.9312 21.323 20.5453 21.8359 21.1968 22.3996C21.8484 22.9633 22.4109 23.4457 22.4437 23.4762C22.4906 23.5168 22.4999 22.1254 22.4906 16.3973L22.4765 9.26758L22.3687 9.03906C22.2234 8.73438 21.9328 8.41953 21.6749 8.28242C21.5578 8.21641 21.314 8.14531 21.1265 8.11485C20.939 8.08945 20.7281 8.02852 20.6484 7.97774C20.1843 7.68828 20.1796 6.95195 20.6343 6.65234C20.9671 6.43399 21.839 6.57617 22.4531 6.9418C22.8421 7.17539 23.3718 7.7543 23.5921 8.17578C23.6859 8.35859 23.8078 8.68867 23.8687 8.91211L23.9765 9.31836V17.3418C23.9765 25.3449 23.9765 25.3652 23.8781 25.543C23.6718 25.9289 23.2218 26.066 22.889 25.8477Z" fill="black" fill-opacity="0.52"/>
<path d="M0.375 20.1449C0.285937 20.084 0.173437 19.952 0.121875 19.8555C0.0234375 19.6777 0.0234375 19.6625 0.0234375 11.248V2.81836L0.13125 2.41211C0.28125 1.84336 0.520312 1.40664 0.909375 0.985156C1.29844 0.563672 1.70156 0.304688 2.22656 0.142188L2.60156 0.0253906H9.75H16.8984L17.2734 0.142188C17.7984 0.304688 18.2016 0.563672 18.5906 0.985156C18.9797 1.40664 19.2188 1.84336 19.3688 2.41211L19.4766 2.81836V8.125V13.4316L19.3688 13.8379C19.2188 14.4066 18.9797 14.8434 18.5906 15.2648C18.2109 15.6711 17.8078 15.9402 17.2969 16.1078L16.9453 16.2195L11.2125 16.2398L5.47969 16.2551L3.37031 18.1594C2.2125 19.2055 1.19531 20.1043 1.11094 20.1602C0.9 20.3023 0.576563 20.2922 0.375 20.1449ZM3.20156 16.2602C4.04531 15.4984 4.81875 14.823 4.9125 14.7621L5.08594 14.6504L11.0156 14.625L16.9453 14.5996L17.1562 14.4828C17.4375 14.3254 17.7281 14.0105 17.8641 13.7211L17.9766 13.4824V8.125V2.76758L17.8688 2.53906C17.7234 2.23438 17.4328 1.91953 17.1656 1.77227L16.9453 1.65039H9.75H2.55469L2.33437 1.77227C2.06719 1.91953 1.77656 2.23438 1.63125 2.53906L1.52344 2.76758L1.50938 10.2781C1.5 17.418 1.50469 17.7836 1.57969 17.7176C1.62656 17.677 2.35313 17.0219 3.20156 16.2602Z" fill="black" fill-opacity="0.52"/>
<path d="M5.12344 9.69922C4.45782 9.52656 4.33125 8.62773 4.92188 8.25703C5.08125 8.15039 5.14219 8.15039 8.25 8.15039C11.3578 8.15039 11.4188 8.15039 11.5781 8.25703C11.8172 8.40938 11.9531 8.65312 11.9531 8.9375C11.9531 9.22187 11.8172 9.46562 11.5781 9.61797C11.4188 9.72461 11.3484 9.72461 8.34375 9.73477C6.65625 9.73984 5.20313 9.72461 5.12344 9.69922Z" fill="black" fill-opacity="0.52"/>
<path d="M5.12344 6.44922C4.45782 6.27656 4.33125 5.37773 4.92188 5.00703C5.08594 4.90039 5.12813 4.90039 9.75 4.90039C14.3719 4.90039 14.4141 4.90039 14.5781 5.00703C15.0797 5.32695 15.0797 6.04805 14.5781 6.36797C14.4141 6.47461 14.3625 6.47461 9.84375 6.48477C7.33125 6.48477 5.20313 6.47461 5.12344 6.44922Z" fill="black" fill-opacity="0.52"/>
</svg>
